PathFileType	4	(X/Y/Z)	C:/Users/beibeiliu/ov580/test_trc/User2\sequence.27_training_dense_right.trc
DataRate	CameraRate	NumFrames	NumMarkers	Units	OrigDataRate	OrigDataStartFrame	OrigNumFrames
120	120	8	19	mm	120	209	278
Frame#	Time	ThumbCMC			ThumbMCP			ThumbIP			ThumbTip			IndexMCP			IndexPIP			IndexTip			MiddleMCP			MiddlePIP			MiddleTip			RingMCP			RingPIP			RingTip			PinkyMCP			PinkyPIP			PinkyTip			BackHand1			BackHand2			BackHand3	
		X0	Y0	Z0	X1	Y1	Z1	X2	Y2	Z2	X3	Y3	Z3	X4	Y4	Z4	X5	Y5	Z5	X6	Y6	Z6	X7	Y7	Z7	X8	Y8	Z8	X9	Y9	Z9	X10	Y10	Z10	X11	Y11	Z11	X12	Y12	Z12	X13	Y13	Z13	X14	Y14	Z14	X15	Y15	Z15	X16	Y16	Z16	X17	Y17	Z17	X18	Y18	Z18	
208	1.73333	98.8681	17.8525	81.4199	66.6922	24.5832	61.1075	44.0147	26.588	31.5756	28.3964	22.6172	9.40991	109.837	29.3563	0.979045	90.4339	36.8245	-19.051	57.436	39.8997	-33.839	96.8719	8.71788	-9.28836	66.3505	11.566	-23.4871	30.6227	15.9896	-18.597	100.842	-15.6483	-10.4089	80.4898	-9.27756	-30.0199	50.6414	-0.419651	-42.0225	100.545	-43.318	-0.440079	93.7458	-48.3598	-22.3206	90.5351	-44.9723	-46.8432	125.389	-32.2551	43.6783	134.551	-43.0412	72.1986	135.593	-5.24731	62.2579	
209	1.74167	102.014	20.3506	79.8078	70.327	24.8365	55.5473	48.2026	26.9421	30.5216	31.7932	21.5763	6.81681	113.944	25.2128	-0.25791	91.3333	32.0159	-23.0471	64.9224	35.5885	-34.0217	99.5258	2.27184	-8.59904	65.8762	9.56354	-22.6054	32.0071	18.9459	-13.7559	99.1002	-18.8401	-11.9688	71.3872	-12.3312	-32.5172	42.4075	-0.5518	-38.6661	99.5023	-45.3109	0.466375	91.5815	-47.6559	-26.7731	87.7288	-48.9101	-47.6333	124.852	-38.3297	40.5718	131.514	-46.6665	73.1552	136.49	-9.33804	61.6054	
210	1.75	105.844	15.4868	77.6025	74.2287	22.9536	52.0054	50.3146	25.2866	26.3682	33.9572	22.2338	10.5939	114.451	23.8291	-5.32304	94.84	29.2646	-24.4334	63.4207	38.3869	-36.5472	97.3132	0.962107	-13.0874	67.3759	13.4509	-22.7612	34.4391	17.7234	-14.3977	99.0071	-22.5839	-11.3758	73.1348	-11.3974	-30.5525	45.8922	1.29831	-36.5424	98.3776	-48.6574	3.98068	89.7251	-49.1249	-24.3449	84.0086	-49.7051	-48.0068	126.145	-36.7048	42.584	134.505	-46.7921	75.357	140.112	-9.42256	62.4979	
211	1.75833	106.264	20.1407	75.436	74.1565	29.1306	55.5092	49.9561	30.9773	26.8845	32.8236	24.9098	7.09315	114.471	22.9359	-7.5503	94.8172	30.6237	-26.5627	63.6727	37.7565	-36.8447	102.204	0.742992	-11.5237	69.8681	9.62025	-22.9854	35.3935	17.5585	-14.9254	96.7757	-21.1137	-14.0258	71.6018	-16.4132	-31.5619	43.3938	-3.33629	-36.1633	97.4897	-50.4045	0.755133	89.4867	-49.9142	-20.733	81.6587	-53.4258	-49.0271	127.219	-37.7382	39.9804	131.261	-48.8931	74.7362	140.956	-11.5343	59.2323	
212	1.76667	107.321	20.0894	73.2667	76.4756	24.4215	54.5159	50.5966	31.2241	27.0743	33.5489	24.2543	6.1268	116.64	21.4221	-7.47625	96.9154	29.0119	-25.2728	65.4802	36.6303	-36.9227	100.175	-2.03426	-14.6852	71.8407	9.30387	-23.9198	36.3573	15.699	-15.8067	94.7292	-27.4823	-15.4003	72.065	-15.8421	-31.6306	44.1298	-3.35608	-37.0299	95.8702	-52.2348	-0.152443	86.9286	-52.7814	-24.7045	77.4717	-54.0137	-48.4427	127.726	-40.5451	41.9634	132.142	-45.9429	72.8506	141.298	-10.7281	60.5055	
213	1.775	108.563	17.8647	74.1564	76.3531	27.0059	49.4396	51.6193	29.3082	24.2994	35.467	22.2098	2.59087	118.424	19.2151	-5.3248	97.3102	28.2727	-26.7869	65.3703	36.148	-37.9988	104.051	-4.04963	-12.9364	71.3604	7.37927	-27.3724	33.3357	14.5342	-16.8931	97.0458	-25.086	-15.0736	73.9973	-19.192	-30.9045	44.448	-1.46684	-38.8092	95.1956	-51.6377	2.04439	82.7863	-54.1769	-23.7078	74.783	-50.2907	-46.0346	127.238	-43.2191	44.3942	132.099	-49.7358	76.207	142.318	-11.7959	63.7417	
214	1.78333	109.907	20.0478	74.2679	79.3317	25.6799	52.4702	53.0515	31.8352	23.2462	35.6881	26.5679	5.84996	118.028	18.4683	-8.53166	97.0291	25.3418	-28.911	67.3907	35.1008	-38.7382	104.843	-2.85914	-15.1772	74.8267	3.74957	-30.8625	39.417	18.3206	-25.8284	96.617	-26.4897	-15.585	72.4983	-19.5278	-33.6961	46.6318	-5.94123	-40.3349	91.6561	-53.7967	1.38632	78.7245	-51.1082	-25.1309	66.5909	-47.8787	-46.2736	124.888	-44.821	39.521	131.966	-51.8955	72.3568	140.32	-14.6908	61.4081	
215	1.79167	112.647	20.3483	70.0478	81.3297	29.0533	46.8088	57.0272	33.0867	23.9104	38.0136	29.4622	4.33914	117.771	13.4888	-12.8842	98.0877	24.2177	-33.8922	70.0199	32.3855	-42.5262	105.561	-4.52143	-19.1069	78.7453	2.88459	-36.3342	42.1189	15.5744	-36.6065	93.2666	-31.8268	-14.5973	71.4278	-19.047	-34.7828	48.7742	-5.19488	-41.1795	88.4111	-52.1837	0.994977	71.9305	-52.9474	-20.7699	59.0264	-47.2812	-40.9409	123.92	-43.5532	42.1937	130.68	-49.0195	73.4989	143.491	-12.6476	57.1725	
